<svg id="svg" version="1.1" xmlns="http://www.w3.org/2000/svg" xmlns:xlink="http://www.w3.org/1999/xlink" width="400" height="320" viewBox="0, 0, 400,320"><g id="svgg"><path id="path0" d="M251.520 45.294 C 245.448 45.516,235.296 45.860,228.960 46.057 C 222.624 46.254,216.144 46.480,214.560 46.559 C 212.976 46.638,208.728 46.780,205.120 46.876 C 201.512 46.972,197.192 47.123,195.520 47.213 C 193.848 47.302,185.856 47.589,177.760 47.851 C 121.346 49.672,124.606 49.449,116.662 52.031 C 102.405 56.665,90.776 69.478,89.015 82.493 C 88.655 85.150,88.986 85.226,90.344 82.801 C 93.579 77.023,95.611 76.760,95.238 82.168 C 94.925 86.706,94.766 87.948,94.236 90.026 C 93.974 91.052,93.760 92.436,93.760 93.102 C 93.760 93.768,93.613 95.087,93.434 96.034 C 93.212 97.205,93.212 97.791,93.434 97.865 C 93.613 97.924,93.760 98.341,93.760 98.790 C 93.760 99.757,94.396 102.112,94.774 102.544 C 94.920 102.711,95.040 103.244,95.040 103.729 C 95.040 104.213,95.185 104.941,95.363 105.345 C 95.772 106.274,96.313 111.151,96.492 115.515 C 96.568 117.361,96.725 119.089,96.842 119.355 C 96.959 119.622,97.170 121.280,97.309 123.040 C 97.449 124.800,97.716 127.896,97.903 129.920 C 98.591 137.365,98.830 140.140,99.336 146.560 C 99.620 150.168,99.933 153.336,100.032 153.600 C 100.131 153.864,100.410 156.672,100.652 159.840 C 100.894 163.008,101.397 168.552,101.770 172.160 C 102.143 175.768,102.516 180.088,102.600 181.760 C 102.684 183.432,102.868 185.475,103.009 186.300 C 103.150 187.126,103.295 188.917,103.331 190.281 C 103.367 191.645,103.448 192.843,103.510 192.943 C 103.572 193.044,103.718 194.565,103.834 196.323 C 103.950 198.081,104.247 201.210,104.493 203.277 C 105.174 208.981,106.064 222.766,105.815 223.746 C 105.658 224.362,105.296 224.698,104.558 224.911 C 103.987 225.076,103.274 225.311,102.974 225.434 C 102.607 225.585,102.151 225.380,101.580 224.809 C 100.513 223.742,100.454 223.814,100.363 226.288 C 100.082 233.974,103.867 243.657,110.407 251.978 C 111.993 253.997,112.244 255.360,111.029 255.360 C 110.859 255.360,110.720 255.614,110.720 255.924 C 110.720 256.235,110.071 257.135,109.278 257.924 C 108.485 258.714,107.605 259.827,107.323 260.397 C 107.041 260.968,106.682 261.355,106.525 261.258 C 106.368 261.161,106.240 261.314,106.240 261.597 C 106.240 263.093,113.781 269.036,119.023 271.671 C 127.892 276.129,134.733 276.914,155.200 275.825 C 158.632 275.642,163.815 275.432,166.718 275.359 C 169.621 275.286,172.763 275.131,173.701 275.013 C 174.640 274.896,176.657 274.763,178.184 274.717 C 185.314 274.505,187.626 274.204,189.516 273.243 C 189.821 273.087,190.793 272.960,191.676 272.960 C 192.558 272.960,193.280 272.837,193.280 272.686 C 193.280 272.327,189.725 271.959,188.543 272.195 C 187.844 272.335,187.627 272.259,187.627 271.874 C 187.627 271.266,188.558 270.920,189.440 271.200 C 189.792 271.312,190.080 271.285,190.080 271.142 C 190.079 270.681,193.311 271.069,193.497 271.552 C 193.605 271.835,194.098 271.984,194.834 271.956 C 195.518 271.931,195.715 271.857,195.311 271.778 C 194.567 271.633,194.227 269.908,194.562 267.976 L 194.725 267.040 200.157 266.785 C 203.532 266.626,205.628 266.644,205.691 266.832 C 205.749 267.006,206.159 266.957,206.656 266.715 C 207.241 266.431,209.745 266.231,214.400 266.097 C 218.184 265.987,221.856 265.831,222.560 265.750 C 223.264 265.669,228.016 265.458,233.120 265.281 C 238.224 265.105,243.696 264.885,245.280 264.793 C 246.864 264.701,251.760 264.487,256.160 264.319 C 276.175 263.551,281.066 263.304,281.807 263.022 C 282.244 262.856,283.157 262.720,283.835 262.720 C 284.514 262.720,286.840 262.210,289.004 261.587 C 309.924 255.566,322.163 236.817,319.599 214.720 C 319.171 211.037,318.245 200.709,317.590 192.320 C 317.514 191.352,317.372 189.912,317.274 189.120 C 317.175 188.328,316.959 186.096,316.793 184.160 C 316.627 182.224,316.276 178.480,316.014 175.840 C 315.752 173.200,315.310 168.304,315.031 164.960 C 314.752 161.616,314.463 158.376,314.389 157.760 C 314.315 157.144,314.107 154.840,313.927 152.640 C 313.747 150.440,313.526 148.136,313.437 147.520 C 313.348 146.904,312.991 143.088,312.644 139.040 C 311.657 127.535,311.370 124.521,310.511 116.640 C 309.587 108.162,309.146 97.701,309.728 98.060 C 309.977 98.214,310.070 97.972,310.019 97.303 C 309.978 96.762,309.835 96.320,309.702 96.320 C 309.569 96.320,309.541 96.068,309.640 95.760 C 309.789 95.298,309.762 95.282,309.488 95.671 C 308.977 96.393,308.807 95.981,308.487 93.244 C 306.943 80.055,306.221 77.701,300.256 66.400 C 294.618 55.718,274.692 44.110,263.257 44.845 C 262.874 44.869,257.592 45.072,251.520 45.294 M222.847 97.226 C 222.937 97.372,222.659 101.008,222.228 105.306 C 221.403 113.544,221.226 117.854,221.920 112.800 L 222.316 109.920 222.340 114.880 C 222.369 120.637,222.565 121.602,223.785 122.008 C 224.730 122.323,227.267 121.244,228.721 119.908 L 229.443 119.246 232.401 120.294 C 234.029 120.870,236.728 121.814,238.400 122.392 C 240.072 122.970,241.872 123.622,242.400 123.841 C 243.958 124.488,244.919 124.871,245.600 125.116 C 248.249 126.068,249.539 126.498,250.160 126.635 C 250.556 126.723,250.880 126.922,250.880 127.077 C 250.880 127.233,251.122 127.360,251.417 127.360 C 251.895 127.360,256.417 128.880,258.080 129.600 C 258.432 129.752,260.016 130.328,261.600 130.880 C 263.184 131.432,264.768 132.002,265.120 132.148 C 265.472 132.294,266.984 132.851,268.480 133.385 C 281.260 137.948,288.544 140.667,288.880 140.999 C 289.136 141.252,289.281 142.353,289.282 144.057 C 289.283 145.522,289.429 147.242,289.606 147.881 C 289.783 148.520,289.963 150.968,290.004 153.321 L 290.080 157.600 288.640 159.947 C 287.362 162.030,285.484 164.058,282.734 166.325 C 282.250 166.724,280.825 167.644,279.567 168.370 C 278.309 169.096,277.064 169.868,276.800 170.087 C 276.536 170.305,275.960 170.592,275.520 170.724 C 275.080 170.856,274.338 171.233,273.871 171.562 C 273.403 171.891,272.869 172.160,272.682 172.160 C 272.394 172.160,270.135 173.246,264.000 176.331 C 262.920 176.874,260.139 178.189,254.400 180.872 C 252.904 181.571,251.176 182.347,250.560 182.596 C 249.944 182.845,249.210 183.452,248.929 183.945 C 248.356 184.950,246.574 185.920,245.301 185.920 C 244.838 185.920,243.941 186.137,243.307 186.401 C 242.674 186.666,240.986 187.023,239.558 187.194 C 238.129 187.365,236.384 187.718,235.680 187.978 C 232.893 189.009,230.464 188.324,228.960 186.084 C 228.432 185.298,227.924 184.651,227.832 184.647 C 227.739 184.643,227.659 184.028,227.655 183.280 C 227.650 182.532,227.402 180.867,227.103 179.579 C 225.864 174.240,228.148 166.739,231.020 166.716 C 231.295 166.714,231.849 166.204,232.251 165.584 C 233.035 164.374,234.731 163.467,239.680 161.614 C 242.671 160.493,243.294 160.251,244.480 159.743 C 247.669 158.380,248.451 158.080,248.822 158.080 C 249.053 158.080,249.346 157.912,249.474 157.706 C 249.635 157.444,249.521 157.402,249.092 157.568 C 247.812 158.063,246.613 158.192,246.849 157.810 C 246.975 157.606,246.919 157.440,246.725 157.440 C 246.531 157.440,246.414 157.190,246.466 156.883 C 246.607 156.046,243.195 153.906,239.489 152.510 C 228.854 148.501,227.140 147.939,224.992 147.754 C 222.443 147.534,222.160 147.696,220.985 150.042 C 219.772 152.463,218.999 155.326,218.685 158.560 C 218.399 161.504,218.421 161.378,218.123 161.855 C 217.981 162.083,217.801 163.379,217.725 164.735 C 217.648 166.091,217.537 167.704,217.479 168.320 C 217.253 170.712,216.840 176.490,216.883 176.671 C 216.907 176.776,216.727 178.102,216.481 179.617 C 216.086 182.057,216.092 182.486,216.531 183.366 C 217.127 184.560,217.038 185.347,215.487 192.640 C 214.869 195.544,214.148 198.280,213.884 198.720 C 213.621 199.160,213.180 200.024,212.905 200.640 C 210.838 205.273,206.701 207.675,200.681 207.737 C 197.112 207.774,195.812 207.605,195.065 207.006 C 194.875 206.854,194.252 206.355,193.680 205.896 C 192.545 204.987,192.411 204.578,193.072 204.035 C 193.370 203.790,193.669 201.746,194.036 197.440 C 194.884 187.494,194.625 186.876,193.634 196.480 C 193.016 202.473,192.202 203.365,191.389 198.940 C 191.157 197.675,190.919 196.385,190.861 196.074 C 190.702 195.229,188.982 192.785,188.628 192.901 C 188.458 192.957,188.358 193.192,188.405 193.423 C 188.527 194.025,184.780 194.014,183.450 193.409 C 182.728 193.080,181.917 193.002,180.730 193.148 C 178.671 193.402,178.984 193.414,175.680 192.959 C 171.823 192.427,170.839 192.115,166.911 190.174 C 164.992 189.225,162.496 188.255,161.363 188.018 C 160.091 187.751,158.979 187.290,158.452 186.812 C 157.065 185.550,155.925 184.960,154.876 184.960 C 154.235 184.960,153.630 184.680,153.148 184.160 C 152.740 183.720,152.250 183.360,152.059 183.360 C 151.868 183.360,151.597 183.180,151.456 182.960 C 151.134 182.456,149.244 181.120,148.854 181.120 C 148.534 181.120,145.779 179.998,144.873 179.498 C 144.561 179.326,143.481 178.883,142.473 178.513 C 141.465 178.144,140.503 177.715,140.336 177.560 C 140.169 177.406,139.718 177.280,139.335 177.280 C 138.952 177.280,138.459 177.064,138.240 176.800 C 138.021 176.536,137.663 176.320,137.445 176.320 C 136.638 176.320,132.587 174.297,130.974 173.088 C 130.057 172.402,129.143 171.840,128.942 171.840 C 128.542 171.840,127.096 170.385,126.338 169.219 C 125.390 167.761,123.842 157.933,124.373 156.743 C 124.682 156.051,125.440 161.489,125.440 164.393 C 125.440 165.504,125.713 166.400,126.052 166.400 C 126.174 166.400,126.105 164.924,125.899 163.120 C 125.692 161.316,125.339 157.953,125.114 155.646 L 124.705 151.453 125.674 150.046 C 127.472 147.437,128.738 146.372,131.680 144.990 C 133.264 144.246,135.712 143.081,137.120 142.401 C 138.528 141.721,141.336 140.379,143.360 139.419 C 145.384 138.459,147.823 137.297,148.780 136.837 C 149.737 136.377,150.697 136.000,150.913 136.000 C 151.130 136.000,151.355 135.892,151.413 135.760 C 151.472 135.628,152.024 135.289,152.640 135.007 C 153.256 134.724,154.984 133.909,156.480 133.194 C 165.946 128.670,167.701 127.837,169.433 127.042 C 170.493 126.557,173.304 125.221,175.680 124.075 C 180.211 121.888,182.311 120.960,182.727 120.960 C 182.863 120.960,183.065 122.004,183.175 123.280 C 183.286 124.556,183.522 127.328,183.701 129.440 C 183.879 131.552,184.174 134.415,184.356 135.801 C 184.588 137.580,184.585 138.423,184.343 138.665 C 183.828 139.180,183.930 139.527,184.528 139.297 C 185.332 138.989,184.835 142.017,183.681 144.452 C 182.135 147.715,179.208 150.228,172.480 154.070 C 169.746 155.632,167.684 157.276,167.675 157.903 C 167.659 159.018,167.168 159.094,164.342 158.423 C 162.806 158.058,161.381 157.771,161.175 157.784 C 160.660 157.818,166.181 159.518,168.000 159.886 C 168.440 159.975,169.088 160.171,169.440 160.321 C 170.081 160.594,173.119 161.531,175.520 162.196 C 176.224 162.391,178.168 162.985,179.840 163.515 C 181.512 164.046,183.062 164.480,183.284 164.480 C 183.507 164.480,183.939 164.615,184.244 164.781 C 184.550 164.946,185.160 165.161,185.600 165.258 C 187.033 165.574,187.197 165.884,187.479 168.820 C 187.748 171.623,187.754 171.639,187.797 169.637 L 187.840 167.594 188.549 168.517 C 191.010 171.721,193.202 168.657,193.958 160.960 C 194.122 159.288,194.397 157.670,194.568 157.364 C 194.740 157.059,194.880 154.439,194.880 151.543 C 194.880 148.647,195.005 146.201,195.158 146.106 C 195.311 146.012,195.538 145.247,195.663 144.407 C 195.788 143.567,195.955 142.592,196.035 142.240 C 196.212 141.460,196.314 140.834,196.633 138.560 C 196.769 137.592,197.017 136.440,197.184 136.000 C 197.486 135.207,198.268 130.025,198.570 126.811 C 198.657 125.893,198.892 124.741,199.093 124.251 C 199.294 123.761,199.495 122.928,199.540 122.400 C 199.585 121.872,199.786 120.144,199.986 118.560 C 200.187 116.976,200.476 114.384,200.630 112.800 C 200.958 109.428,200.890 109.760,201.245 109.760 C 201.402 109.760,201.454 111.014,201.362 112.560 C 201.120 116.624,201.631 115.556,201.970 111.292 C 202.127 109.305,202.341 106.600,202.445 105.280 C 202.630 102.940,203.129 101.671,204.521 100.000 C 204.814 99.648,205.393 98.955,205.808 98.460 L 206.561 97.560 214.081 97.310 C 218.216 97.173,221.844 97.038,222.141 97.010 C 222.439 96.983,222.756 97.080,222.847 97.226 M200.854 118.560 C 200.719 120.320,200.470 123.187,200.302 124.932 C 200.009 127.976,200.101 129.542,200.443 127.313 C 200.794 125.027,201.351 117.231,201.229 116.320 C 201.158 115.792,200.989 116.800,200.854 118.560 M220.892 118.880 C 220.894 119.760,220.956 120.082,221.030 119.596 C 221.103 119.109,221.101 118.389,221.025 117.996 C 220.949 117.602,220.889 118.000,220.892 118.880 M184.870 135.276 C 184.796 135.762,184.734 135.440,184.732 134.560 C 184.729 133.680,184.789 133.282,184.865 133.676 C 184.941 134.069,184.943 134.789,184.870 135.276 M185.215 137.643 C 185.114 138.284,185.069 138.239,184.922 137.350 C 184.817 136.714,184.864 136.416,185.041 136.593 C 185.202 136.754,185.281 137.227,185.215 137.643 M218.314 144.320 C 218.314 144.936,218.380 145.188,218.461 144.880 C 218.541 144.572,218.541 144.068,218.461 143.760 C 218.380 143.452,218.314 143.704,218.314 144.320 M217.367 154.240 C 217.367 155.032,217.430 155.356,217.506 154.960 C 217.582 154.564,217.582 153.916,217.506 153.520 C 217.430 153.124,217.367 153.448,217.367 154.240 M252.320 156.331 C 251.520 156.717,251.493 156.761,252.160 156.598 C 253.067 156.376,254.086 155.857,253.600 155.864 C 253.424 155.867,252.848 156.077,252.320 156.331 M216.727 160.320 C 216.727 161.112,216.790 161.436,216.866 161.040 C 216.942 160.644,216.942 159.996,216.866 159.600 C 216.790 159.204,216.727 159.528,216.727 160.320 M215.767 170.880 C 215.767 171.672,215.830 171.996,215.906 171.600 C 215.982 171.204,215.982 170.556,215.906 170.160 C 215.830 169.764,215.767 170.088,215.767 170.880 M214.933 177.813 C 214.816 177.931,214.739 178.831,214.762 179.813 L 214.804 181.600 215.051 179.680 C 215.306 177.688,215.292 177.455,214.933 177.813 M213.970 186.960 C 213.442 194.867,213.443 194.813,213.758 193.280 C 214.144 191.405,214.631 184.000,214.369 184.000 C 214.258 184.000,214.078 185.332,213.970 186.960 M213.172 196.160 C 213.138 196.776,213.031 197.640,212.934 198.080 C 212.781 198.767,212.807 198.800,213.116 198.316 C 213.314 198.006,213.421 197.142,213.354 196.396 C 213.241 195.142,213.227 195.124,213.172 196.160 M99.845 218.141 C 99.842 218.703,99.984 219.251,100.160 219.360 C 100.570 219.613,100.570 218.235,100.160 217.600 C 99.924 217.235,99.849 217.364,99.845 218.141 M288.480 260.480 C 287.591 260.862,286.964 260.862,287.200 260.480 C 287.309 260.304,287.785 260.170,288.259 260.182 C 289.028 260.203,289.051 260.234,288.480 260.480 M286.560 260.800 C 286.451 260.976,286.146 261.120,285.882 261.120 C 285.618 261.120,285.491 260.976,285.600 260.800 C 285.709 260.624,286.014 260.480,286.278 260.480 C 286.542 260.480,286.669 260.624,286.560 260.800 M281.520 261.981 C 281.212 262.061,280.708 262.061,280.400 261.981 C 280.092 261.900,280.344 261.834,280.960 261.834 C 281.576 261.834,281.828 261.900,281.520 261.981 M272.846 262.301 C 272.493 262.654,267.200 262.736,267.200 262.388 C 267.200 262.213,268.464 262.080,270.133 262.080 C 271.747 262.080,272.967 262.180,272.846 262.301 M252.480 263.237 C 252.480 263.305,252.120 263.360,251.680 263.360 C 251.240 263.360,250.880 263.236,250.880 263.084 C 250.880 262.933,251.240 262.878,251.680 262.962 C 252.120 263.046,252.480 263.170,252.480 263.237 M231.680 263.680 C 232.209 263.849,231.449 263.945,229.440 263.963 C 227.369 263.982,226.553 263.891,226.880 263.680 C 227.447 263.314,230.536 263.314,231.680 263.680 M241.684 263.585 C 241.291 263.661,240.571 263.663,240.084 263.590 C 239.598 263.516,239.920 263.454,240.800 263.452 C 241.680 263.449,242.078 263.509,241.684 263.585 M224.640 263.979 C 224.640 264.176,223.930 264.323,222.960 264.327 C 222.036 264.331,219.586 264.393,217.515 264.465 C 214.678 264.563,213.806 264.502,213.976 264.218 C 214.146 263.935,214.087 263.929,213.741 264.196 C 213.484 264.395,210.588 264.714,207.200 264.918 C 201.942 265.235,195.683 265.497,172.000 266.393 C 169.536 266.487,163.416 266.737,158.400 266.949 C 142.008 267.643,138.547 267.461,134.880 265.708 C 133.932 265.255,133.940 265.252,135.520 265.412 C 139.813 265.849,144.676 265.927,146.880 265.596 C 148.200 265.397,152.520 265.178,156.480 265.110 C 160.440 265.042,165.912 264.913,168.640 264.823 C 173.849 264.651,189.358 264.345,200.887 264.186 C 204.631 264.134,207.752 264.035,207.821 263.966 C 208.144 263.644,224.640 263.657,224.640 263.979 M192.720 268.384 C 194.174 268.627,193.710 268.957,191.837 269.011 C 190.871 269.039,190.080 268.940,190.080 268.791 C 190.080 268.642,189.612 268.457,189.040 268.380 C 188.468 268.303,188.864 268.239,189.920 268.238 C 190.976 268.237,192.236 268.303,192.720 268.384 M182.838 273.348 C 182.613 273.712,181.440 273.658,181.440 273.284 C 181.440 273.110,181.790 272.996,182.217 273.031 C 182.644 273.067,182.924 273.209,182.838 273.348 M261.680 273.186 C 262.076 273.262,262.724 273.262,263.120 273.186 C 263.516 273.110,263.192 273.047,262.400 273.047 C 261.608 273.047,261.284 273.110,261.680 273.186 M207.440 275.101 C 207.748 275.181,208.252 275.181,208.560 275.101 C 208.868 275.020,208.616 274.954,208.000 274.954 C 207.384 274.954,207.132 275.020,207.440 275.101 " stroke="none" fill="#a983e6" fill-rule="evenodd"></path><path id="path1" d="M246.560 42.948 C 243.744 43.091,239.280 43.270,236.640 43.347 C 234.000 43.423,226.440 43.647,219.840 43.845 C 213.240 44.042,206.112 44.253,204.000 44.314 C 194.652 44.585,188.833 44.873,187.221 45.146 C 186.265 45.308,182.005 45.440,177.755 45.440 C 173.504 45.440,169.949 45.517,169.855 45.612 C 169.760 45.706,165.668 45.860,160.761 45.952 C 155.855 46.045,151.671 46.175,151.465 46.241 C 151.258 46.307,147.730 46.441,143.625 46.538 C 129.731 46.867,121.786 47.437,118.880 48.312 C 118.352 48.471,117.380 48.698,116.720 48.816 C 116.060 48.935,115.520 49.159,115.520 49.316 C 115.520 49.472,115.178 49.600,114.759 49.600 C 113.719 49.600,109.472 51.321,109.096 51.895 C 108.996 52.049,108.632 52.229,108.288 52.295 C 107.427 52.461,104.960 53.771,104.960 54.062 C 104.960 54.193,104.302 54.638,103.498 55.051 C 102.694 55.465,101.897 56.063,101.727 56.381 C 101.557 56.700,101.202 56.960,100.939 56.960 C 100.675 56.960,100.377 57.176,100.276 57.440 C 100.174 57.704,99.951 57.920,99.778 57.920 C 99.192 57.920,92.895 64.617,92.532 65.627 C 92.473 65.791,92.041 66.332,91.572 66.829 C 90.298 68.178,88.498 70.416,88.351 70.833 C 88.280 71.035,87.725 71.704,87.117 72.320 C 86.509 72.936,85.823 73.872,85.593 74.400 C 85.364 74.928,84.803 75.792,84.348 76.320 C 83.893 76.848,83.521 77.532,83.520 77.840 C 83.520 78.148,83.376 78.400,83.200 78.400 C 83.024 78.400,82.880 78.773,82.880 79.229 C 82.880 79.684,82.590 80.296,82.237 80.589 C 81.570 81.139,79.835 87.153,80.181 87.714 C 80.278 87.871,80.238 88.000,80.092 88.000 C 78.681 88.000,77.981 100.411,78.847 110.080 C 78.966 111.400,79.208 114.208,79.385 116.320 C 79.563 118.432,79.922 122.464,80.182 125.280 C 80.443 128.096,80.746 131.737,80.856 133.371 C 80.966 135.004,81.178 136.417,81.328 136.509 C 81.477 136.602,81.601 137.785,81.603 139.139 C 81.606 142.146,81.926 144.994,82.238 144.801 C 82.523 144.625,82.798 147.908,82.855 152.160 C 82.879 153.920,82.967 155.792,83.052 156.320 C 83.136 156.848,83.424 159.862,83.691 163.017 C 83.958 166.172,84.292 168.908,84.434 169.097 C 84.577 169.286,84.721 170.160,84.757 171.040 C 84.792 171.920,84.963 174.008,85.138 175.680 C 85.313 177.352,85.514 180.232,85.586 182.080 C 85.794 187.434,86.326 193.036,86.648 193.246 C 86.810 193.353,86.953 193.656,86.965 193.920 C 87.131 197.549,87.666 204.840,87.780 205.030 C 87.862 205.168,88.026 207.080,88.144 209.280 C 88.416 214.365,88.750 217.944,89.726 226.240 C 89.985 228.440,90.207 231.060,90.218 232.061 C 90.230 233.063,90.384 233.971,90.560 234.080 C 90.736 234.189,90.880 235.115,90.880 236.139 C 90.880 237.162,91.090 238.596,91.347 239.324 C 91.604 240.053,91.799 240.683,91.780 240.724 C 91.762 240.766,91.844 241.160,91.964 241.600 C 92.611 243.970,92.932 244.800,93.205 244.800 C 93.372 244.800,93.420 245.030,93.313 245.310 C 93.205 245.591,93.478 246.539,93.918 247.417 C 94.359 248.294,94.720 249.289,94.720 249.626 C 94.720 249.964,94.864 250.240,95.040 250.240 C 95.216 250.240,95.360 250.448,95.360 250.702 C 95.360 250.956,95.627 251.352,95.954 251.582 C 96.281 251.812,96.652 252.360,96.780 252.800 C 97.232 254.365,97.962 255.692,98.266 255.504 C 98.436 255.399,98.870 255.980,99.231 256.795 C 99.592 257.611,100.092 258.357,100.343 258.453 C 100.595 258.550,100.800 258.746,100.800 258.890 C 100.800 259.591,106.838 265.600,107.543 265.600 C 107.727 265.600,107.796 265.733,107.695 265.896 C 107.531 266.162,109.100 267.520,109.572 267.520 C 109.679 267.520,110.206 267.912,110.744 268.391 C 111.282 268.871,112.396 269.583,113.221 269.973 C 114.045 270.364,114.584 270.691,114.417 270.702 C 114.251 270.712,114.827 271.075,115.697 271.509 C 116.568 271.943,117.408 272.290,117.564 272.281 C 117.721 272.273,117.937 272.402,118.044 272.568 C 118.355 273.048,120.225 273.920,120.944 273.920 C 121.305 273.920,121.600 274.033,121.600 274.170 C 121.600 274.308,121.989 274.453,122.466 274.492 C 122.942 274.531,123.882 274.851,124.555 275.202 C 125.229 275.553,126.199 275.840,126.711 275.840 C 127.223 275.840,127.726 275.975,127.828 276.140 C 127.929 276.305,128.587 276.432,129.288 276.422 C 129.990 276.412,130.743 276.544,130.962 276.714 C 131.181 276.885,131.972 276.993,132.720 276.954 C 133.468 276.915,134.080 276.979,134.080 277.097 C 134.080 277.294,141.234 277.299,153.600 277.111 C 156.328 277.070,158.642 276.909,158.741 276.754 C 158.841 276.599,162.873 276.415,167.701 276.345 C 172.530 276.275,176.552 276.209,176.640 276.198 C 177.506 276.088,191.955 275.829,196.853 275.835 C 201.578 275.841,203.179 275.744,203.278 275.447 C 203.378 275.147,205.444 275.033,211.705 274.981 C 216.267 274.943,220.864 274.805,221.920 274.673 C 222.976 274.542,225.352 274.395,227.200 274.346 C 229.048 274.298,232.720 274.193,235.360 274.114 C 238.000 274.034,242.140 273.964,244.560 273.958 C 246.980 273.952,248.960 273.834,248.960 273.694 C 248.960 273.554,251.048 273.460,253.600 273.485 C 256.152 273.509,258.240 273.437,258.240 273.325 C 258.240 273.212,259.750 273.121,261.596 273.122 C 263.844 273.123,264.998 273.002,265.094 272.754 C 265.373 272.026,264.738 272.031,240.480 272.941 C 235.552 273.126,226.912 273.426,221.280 273.607 C 208.467 274.019,191.456 274.629,157.600 275.892 C 140.648 276.524,133.860 276.454,130.217 275.611 C 121.710 273.642,113.724 269.491,108.464 264.305 C 106.638 262.503,105.404 260.566,106.525 261.258 C 106.682 261.355,107.041 260.968,107.323 260.397 C 107.605 259.827,108.485 258.714,109.278 257.924 C 110.071 257.135,110.720 256.235,110.720 255.924 C 110.720 255.614,110.859 255.360,111.029 255.360 C 112.244 255.360,111.993 253.997,110.407 251.978 C 103.867 243.657,100.082 233.974,100.363 226.288 C 100.454 223.814,100.513 223.742,101.580 224.809 C 102.151 225.380,102.607 225.585,102.974 225.434 C 103.274 225.311,103.987 225.076,104.558 224.911 C 105.296 224.698,105.658 224.362,105.815 223.746 C 106.064 222.766,105.174 208.981,104.493 203.277 C 104.247 201.210,103.950 198.081,103.834 196.323 C 103.718 194.565,103.572 193.044,103.510 192.943 C 103.448 192.843,103.367 191.645,103.331 190.281 C 103.295 188.917,103.150 187.126,103.009 186.300 C 102.868 185.475,102.684 183.432,102.600 181.760 C 102.516 180.088,102.143 175.768,101.770 172.160 C 101.397 168.552,100.894 163.008,100.652 159.840 C 100.410 156.672,100.131 153.864,100.032 153.600 C 99.933 153.336,99.620 150.168,99.336 146.560 C 98.830 140.140,98.591 137.365,97.903 129.920 C 97.716 127.896,97.449 124.800,97.309 123.040 C 97.170 121.280,96.959 119.622,96.842 119.355 C 96.725 119.089,96.568 117.361,96.492 115.515 C 96.313 111.151,95.772 106.274,95.363 105.345 C 95.185 104.941,95.040 104.213,95.040 103.729 C 95.040 103.244,94.920 102.711,94.774 102.544 C 94.396 102.112,93.760 99.757,93.760 98.790 C 93.760 98.341,93.613 97.924,93.434 97.865 C 93.212 97.791,93.212 97.205,93.434 96.034 C 93.613 95.087,93.760 93.768,93.760 93.102 C 93.760 92.436,93.974 91.052,94.236 90.026 C 94.766 87.948,94.925 86.706,95.238 82.168 C 95.611 76.760,93.579 77.023,90.344 82.801 C 87.276 88.281,89.185 78.839,92.431 72.480 C 98.542 60.507,109.620 52.701,124.000 50.236 C 128.973 49.383,125.430 49.540,177.760 47.851 C 185.856 47.589,193.848 47.303,195.520 47.214 C 197.192 47.125,201.440 46.975,204.960 46.879 C 208.480 46.784,212.800 46.639,214.560 46.557 C 216.320 46.476,222.728 46.255,228.800 46.068 C 234.872 45.881,245.393 45.534,252.180 45.298 C 267.356 44.771,270.024 45.058,277.440 48.013 C 286.932 51.797,296.713 59.679,300.255 66.400 C 304.102 73.699,307.195 81.225,307.205 83.314 C 307.210 84.447,307.459 84.940,308.160 85.207 C 308.529 85.347,308.504 85.395,308.052 85.415 C 307.558 85.436,307.491 85.633,307.634 86.640 C 307.885 88.419,308.450 92.744,308.658 94.480 C 308.845 96.045,309.253 96.452,309.586 95.404 C 309.926 94.333,309.291 83.340,308.761 81.120 C 308.107 78.382,306.213 72.559,305.809 72.048 C 305.621 71.810,305.439 71.450,305.403 71.248 C 305.244 70.342,304.260 68.437,303.876 68.289 C 303.642 68.200,303.264 67.558,303.034 66.863 C 302.805 66.168,302.497 65.600,302.349 65.600 C 302.201 65.600,302.080 65.457,302.080 65.282 C 302.080 64.693,300.753 63.433,300.214 63.511 C 299.920 63.553,299.860 63.526,300.080 63.451 C 300.770 63.213,300.519 62.385,299.438 61.333 C 298.865 60.776,298.087 59.888,297.709 59.360 C 296.627 57.846,294.635 55.882,293.682 55.389 C 293.203 55.141,292.726 54.671,292.623 54.345 C 292.380 53.582,289.654 51.629,285.440 49.203 C 281.488 46.926,280.425 46.402,280.207 46.619 C 280.093 46.733,280.000 46.659,280.000 46.453 C 280.000 46.248,279.640 46.080,279.200 46.080 C 278.760 46.080,278.400 45.936,278.400 45.760 C 278.400 45.584,278.105 45.440,277.745 45.440 C 277.384 45.440,276.495 45.153,275.769 44.802 C 275.043 44.451,274.391 44.222,274.320 44.293 C 274.250 44.364,273.735 44.274,273.176 44.093 C 272.204 43.779,271.027 43.555,266.960 42.907 C 264.779 42.560,253.774 42.582,246.560 42.948 M309.544 102.560 C 309.630 105.200,309.852 108.656,310.037 110.240 C 310.222 111.824,310.663 116.216,311.018 120.000 C 311.373 123.784,311.878 129.112,312.140 131.840 C 312.731 137.989,313.612 147.355,315.043 162.720 C 315.650 169.232,316.219 175.280,316.308 176.160 C 316.776 180.796,317.785 191.360,318.081 194.720 C 318.267 196.832,318.698 201.512,319.039 205.120 C 319.380 208.728,319.807 213.264,319.989 215.200 C 320.428 219.875,320.390 223.509,319.864 227.200 C 319.621 228.906,319.556 230.287,319.716 230.347 C 319.872 230.405,320.000 230.581,320.000 230.737 C 320.000 230.892,319.784 230.937,319.520 230.836 C 319.216 230.719,319.040 230.840,319.040 231.166 C 319.040 231.449,319.184 231.680,319.360 231.680 C 319.536 231.680,319.680 231.824,319.680 232.000 C 319.680 232.176,319.481 232.320,319.237 232.320 C 318.994 232.320,318.717 232.644,318.623 233.040 C 318.529 233.436,318.355 234.071,318.236 234.451 C 318.084 234.938,318.172 235.188,318.537 235.298 C 318.953 235.425,318.944 235.445,318.490 235.404 C 318.070 235.366,317.661 236.001,316.885 237.896 C 316.313 239.295,315.281 241.385,314.593 242.540 C 313.727 243.993,313.455 244.712,313.711 244.875 C 313.950 245.028,313.887 245.112,313.530 245.115 C 313.228 245.118,312.364 245.943,311.610 246.950 C 308.632 250.927,304.556 254.499,297.998 258.880 C 297.076 259.496,296.321 260.090,296.321 260.200 C 296.320 260.309,295.743 261.029,295.038 261.800 C 294.332 262.570,293.675 263.452,293.576 263.760 C 293.477 264.068,293.191 264.320,292.938 264.320 C 292.686 264.320,292.480 264.526,292.480 264.779 C 292.480 265.250,289.928 267.520,289.398 267.520 C 288.747 267.520,287.715 268.518,287.891 268.977 C 288.032 269.346,288.176 269.372,288.517 269.089 C 288.761 268.887,288.960 268.834,288.960 268.970 C 288.960 269.107,289.239 268.967,289.580 268.658 C 289.921 268.350,290.341 268.185,290.514 268.292 C 290.687 268.398,291.024 268.290,291.263 268.051 C 291.502 267.812,292.246 267.436,292.916 267.214 C 293.587 266.993,294.644 266.365,295.266 265.819 C 295.888 265.273,296.618 264.794,296.887 264.754 C 297.157 264.715,297.680 264.392,298.049 264.036 C 299.512 262.628,300.171 262.080,300.400 262.080 C 300.593 262.080,303.323 259.294,306.043 256.320 C 306.285 256.056,307.245 254.832,308.178 253.600 C 309.111 252.368,310.278 250.938,310.773 250.423 C 311.268 249.907,311.756 249.223,311.858 248.903 C 311.960 248.582,312.177 248.320,312.342 248.320 C 312.506 248.320,312.640 248.157,312.640 247.957 C 312.640 247.757,312.967 247.289,313.367 246.917 C 313.767 246.545,314.350 245.700,314.662 245.040 C 314.975 244.380,315.341 243.840,315.476 243.840 C 315.901 243.840,317.120 241.391,317.120 240.538 C 317.120 239.994,317.341 239.653,317.784 239.512 C 318.149 239.396,318.371 239.224,318.277 239.130 C 318.183 239.036,318.319 238.547,318.579 238.043 C 318.840 237.539,319.054 237.055,319.055 236.967 C 319.056 236.879,319.117 236.625,319.190 236.403 C 319.263 236.182,319.562 235.280,319.854 234.400 C 320.312 233.018,320.462 232.377,320.749 230.560 C 320.777 230.384,320.939 230.140,321.109 230.019 C 321.870 229.473,321.674 213.990,320.800 205.600 C 320.727 204.896,320.595 203.384,320.507 202.240 C 320.289 199.392,319.745 193.429,319.368 189.760 C 319.197 188.088,318.976 185.583,318.878 184.192 C 318.779 182.802,318.630 181.553,318.545 181.415 C 318.460 181.278,318.335 179.784,318.267 178.094 C 318.199 176.405,318.001 174.847,317.825 174.631 C 317.650 174.416,317.407 172.368,317.286 170.080 C 317.165 167.792,316.998 165.200,316.916 164.320 C 316.604 160.960,316.463 159.159,316.423 158.000 C 316.400 157.340,316.281 156.800,316.159 156.800 C 316.036 156.800,315.996 156.188,316.069 155.440 C 316.141 154.692,316.038 153.216,315.840 152.160 C 315.393 149.784,314.952 145.330,314.576 139.405 C 314.419 136.916,314.201 134.448,314.093 133.920 C 313.986 133.392,313.908 131.928,313.920 130.666 C 313.933 129.404,313.800 128.284,313.625 128.176 C 313.451 128.068,313.390 127.766,313.490 127.504 C 313.591 127.242,313.518 126.635,313.328 126.154 C 313.139 125.673,312.847 123.079,312.681 120.388 C 312.515 117.698,312.218 115.302,312.021 115.065 C 311.815 114.818,311.680 113.562,311.703 112.117 C 311.737 109.961,311.493 106.627,311.179 104.960 C 311.130 104.696,311.078 104.292,311.064 104.061 C 311.051 103.825,310.877 103.743,310.666 103.874 C 310.399 104.039,310.369 103.929,310.563 103.492 C 311.055 102.383,310.538 98.880,309.772 98.134 C 309.474 97.843,309.423 98.829,309.544 102.560 M100.475 218.819 C 100.478 219.231,100.338 219.470,100.160 219.360 C 99.984 219.251,99.842 218.703,99.845 218.141 C 99.849 217.364,99.924 217.235,100.160 217.600 C 100.331 217.864,100.472 218.412,100.475 218.819 M283.520 269.757 C 283.256 269.926,282.284 270.235,281.360 270.443 C 280.436 270.651,279.680 270.943,279.680 271.091 C 279.680 271.239,279.572 271.343,279.440 271.322 C 278.773 271.217,278.080 271.395,278.080 271.672 C 278.080 272.023,280.104 271.717,280.255 271.343 C 280.308 271.214,280.633 271.182,280.977 271.272 C 281.322 271.362,281.812 271.262,282.068 271.050 C 282.323 270.838,282.672 270.752,282.844 270.858 C 283.015 270.964,283.238 270.918,283.338 270.755 C 283.439 270.593,284.277 270.351,285.200 270.217 C 286.614 270.012,286.753 269.937,286.080 269.739 C 284.926 269.400,284.069 269.406,283.520 269.757 M275.056 271.611 C 274.970 271.696,273.741 271.855,272.324 271.963 C 270.852 272.076,269.784 272.297,269.833 272.480 C 269.881 272.656,270.136 272.771,270.400 272.735 C 270.664 272.699,271.708 272.641,272.720 272.607 C 273.732 272.572,274.560 272.458,274.560 272.352 C 274.560 272.246,275.136 272.155,275.841 272.148 C 277.312 272.135,277.606 271.536,276.165 271.488 C 275.640 271.470,275.141 271.526,275.056 271.611 " stroke="none" fill="#f6effb" fill-rule="evenodd"></path><path id="path2" d="M214.081 97.310 L 206.561 97.560 205.808 98.460 C 205.393 98.955,204.814 99.648,204.521 100.000 C 203.090 101.717,202.635 102.927,202.415 105.600 C 202.292 107.096,202.071 109.616,201.923 111.200 C 201.626 114.379,201.177 119.409,200.666 125.280 C 200.482 127.392,200.259 130.920,200.172 133.120 C 200.084 135.320,199.925 138.488,199.819 140.160 C 199.713 141.832,199.584 144.064,199.533 145.120 C 199.481 146.176,199.133 151.216,198.760 156.320 C 198.387 161.424,198.080 167.040,198.080 168.800 C 198.077 174.683,196.804 185.280,196.099 185.280 C 195.489 185.280,194.874 187.616,194.567 191.103 C 193.314 205.301,193.231 204.453,195.620 201.877 L 197.280 200.088 204.000 199.836 C 207.696 199.698,211.037 199.570,211.424 199.553 C 212.805 199.489,212.920 199.012,213.750 189.920 C 214.294 183.960,214.711 179.899,215.049 177.280 C 215.220 175.960,215.725 170.920,216.171 166.080 C 216.617 161.240,217.118 156.056,217.283 154.560 C 217.448 153.064,218.019 147.232,218.551 141.600 C 219.449 132.093,220.293 123.870,221.127 116.480 C 221.949 109.203,222.997 97.469,222.846 97.226 C 222.756 97.080,222.439 96.983,222.141 97.010 C 221.844 97.038,218.216 97.173,214.081 97.310 M309.847 109.760 C 309.847 110.552,309.910 110.876,309.986 110.480 C 310.062 110.084,310.062 109.436,309.986 109.040 C 309.910 108.644,309.847 108.968,309.847 109.760 M228.742 119.875 C 228.372 120.245,228.287 120.614,228.465 121.084 C 228.606 121.456,228.812 122.768,228.922 124.000 C 229.783 133.579,230.119 137.101,230.175 137.129 C 230.211 137.147,233.552 138.144,237.600 139.344 C 245.196 141.596,262.132 146.634,266.820 148.037 C 268.826 148.637,269.456 148.957,269.380 149.337 C 269.295 149.767,263.253 152.330,251.040 157.117 C 250.512 157.324,249.792 157.611,249.440 157.754 C 249.088 157.897,248.008 158.325,247.040 158.704 C 246.072 159.084,244.956 159.531,244.560 159.697 C 242.876 160.406,242.263 160.646,239.680 161.614 C 233.267 164.016,230.989 165.682,231.660 167.480 C 231.799 167.854,232.009 169.528,232.126 171.200 C 232.243 172.872,232.419 175.392,232.517 176.800 C 232.615 178.208,232.835 179.912,233.007 180.586 C 233.179 181.261,233.276 182.141,233.223 182.542 C 233.171 182.943,233.311 183.492,233.536 183.762 C 234.000 184.322,235.200 184.141,235.200 183.511 C 235.200 182.486,238.090 180.821,246.720 176.874 C 247.688 176.432,249.884 175.406,251.600 174.595 C 253.316 173.784,256.124 172.457,257.840 171.646 C 271.218 165.324,282.567 160.042,285.120 158.948 C 286.792 158.232,288.592 157.404,289.120 157.110 L 290.080 156.574 289.978 152.767 C 289.922 150.673,289.743 148.456,289.580 147.840 C 289.417 147.224,289.283 145.522,289.282 144.057 C 289.281 142.353,289.136 141.252,288.880 140.999 C 288.544 140.667,281.260 137.948,268.480 133.385 C 266.984 132.851,265.472 132.294,265.120 132.148 C 264.768 132.002,263.184 131.432,261.600 130.880 C 260.016 130.328,258.432 129.752,258.080 129.600 C 256.417 128.880,251.895 127.360,251.417 127.360 C 251.122 127.360,250.880 127.233,250.880 127.077 C 250.880 126.922,250.556 126.723,250.160 126.635 C 249.448 126.478,246.991 125.642,245.440 125.030 C 245.000 124.856,244.352 124.604,244.000 124.470 C 243.648 124.336,242.640 123.937,241.760 123.584 C 240.880 123.231,239.440 122.726,238.560 122.462 C 237.680 122.198,235.664 121.483,234.080 120.873 C 230.157 119.363,229.397 119.221,228.742 119.875 M181.440 121.363 C 181.000 121.561,178.552 122.722,176.000 123.941 C 173.448 125.161,170.493 126.557,169.433 127.042 C 167.701 127.837,165.944 128.671,156.480 133.194 C 154.984 133.909,153.256 134.724,152.640 135.007 C 152.024 135.289,151.472 135.628,151.413 135.760 C 151.355 135.892,151.130 136.000,150.913 136.000 C 150.697 136.000,149.737 136.377,148.780 136.837 C 147.823 137.297,145.384 138.459,143.360 139.419 C 139.442 141.277,136.512 142.685,131.360 145.185 C 129.600 146.039,128.189 146.893,128.225 147.083 C 128.260 147.273,127.972 147.600,127.585 147.809 C 127.197 148.019,126.389 148.937,125.788 149.849 L 124.697 151.508 125.085 155.354 C 126.379 168.174,125.990 167.059,128.291 164.559 L 130.132 162.557 135.386 164.439 C 147.517 168.784,160.195 173.556,163.563 175.045 C 165.548 175.922,167.312 176.640,167.485 176.640 C 167.657 176.640,168.383 176.907,169.099 177.234 C 169.815 177.561,171.048 178.010,171.840 178.231 C 172.632 178.452,173.568 178.744,173.920 178.879 C 177.416 180.222,187.487 183.680,187.905 183.680 C 188.794 183.680,188.823 183.295,188.331 178.027 C 187.079 164.641,187.290 165.631,185.600 165.258 C 185.160 165.161,184.550 164.946,184.244 164.781 C 183.939 164.615,183.507 164.480,183.284 164.480 C 183.062 164.480,181.512 164.046,179.840 163.515 C 178.168 162.985,176.224 162.391,175.520 162.196 C 172.480 161.354,170.040 160.584,169.524 160.303 C 169.219 160.136,168.686 160.000,168.339 160.000 C 167.993 160.000,167.379 159.869,166.975 159.709 C 166.571 159.550,165.160 159.105,163.840 158.721 C 161.111 157.928,159.556 157.464,158.400 157.097 C 157.960 156.957,155.695 156.249,153.367 155.522 C 149.531 154.325,148.467 153.826,148.877 153.416 C 148.955 153.338,154.693 150.988,161.629 148.193 C 168.565 145.398,176.231 142.303,178.665 141.316 C 181.099 140.328,183.260 139.520,183.468 139.520 C 184.384 139.520,184.676 138.266,184.347 135.742 C 184.170 134.388,183.879 131.552,183.701 129.440 C 182.888 119.836,183.106 120.614,181.440 121.363 M311.754 129.280 C 311.754 129.896,311.820 130.148,311.901 129.840 C 311.981 129.532,311.981 129.028,311.901 128.720 C 311.820 128.412,311.754 128.664,311.754 129.280 M312.714 139.520 C 312.714 140.136,312.780 140.388,312.861 140.080 C 312.941 139.772,312.941 139.268,312.861 138.960 C 312.780 138.652,312.714 138.904,312.714 139.520 M313.041 143.520 C 313.044 144.224,313.110 144.474,313.186 144.076 C 313.263 143.678,313.260 143.102,313.180 142.796 C 313.100 142.490,313.037 142.816,313.041 143.520 M313.354 146.560 C 313.354 147.176,313.420 147.428,313.501 147.120 C 313.581 146.812,313.581 146.308,313.501 146.000 C 313.420 145.692,313.354 145.944,313.354 146.560 M314.012 153.760 C 314.014 154.640,314.076 154.962,314.150 154.476 C 314.223 153.989,314.221 153.269,314.145 152.876 C 314.069 152.482,314.009 152.880,314.012 153.760 M314.647 160.320 C 314.647 161.112,314.710 161.436,314.786 161.040 C 314.862 160.644,314.862 159.996,314.786 159.600 C 314.710 159.204,314.647 159.528,314.647 160.320 M314.967 163.840 C 314.967 164.632,315.030 164.956,315.106 164.560 C 315.182 164.164,315.182 163.516,315.106 163.120 C 315.030 162.724,314.967 163.048,314.967 163.840 M315.274 167.040 C 315.274 167.656,315.340 167.908,315.421 167.600 C 315.501 167.292,315.501 166.788,315.421 166.480 C 315.340 166.172,315.274 166.424,315.274 167.040 M315.727 172.640 C 315.878 175.836,315.998 176.677,316.246 176.293 C 316.294 176.220,316.159 174.576,315.947 172.640 L 315.561 169.120 315.727 172.640 M316.241 177.760 C 316.244 178.464,316.310 178.714,316.386 178.316 C 316.463 177.918,316.460 177.342,316.380 177.036 C 316.300 176.730,316.237 177.056,316.241 177.760 M316.572 180.960 C 316.574 181.840,316.636 182.162,316.710 181.676 C 316.783 181.189,316.781 180.469,316.705 180.076 C 316.629 179.682,316.569 180.080,316.572 180.960 M316.832 184.667 C 316.849 185.796,316.982 187.080,317.127 187.520 C 317.282 187.990,317.316 187.197,317.211 185.600 C 316.996 182.332,316.788 181.819,316.832 184.667 M317.320 189.760 C 317.580 191.552,317.762 191.808,317.755 190.373 C 317.752 189.772,317.606 189.064,317.431 188.800 C 317.207 188.465,317.174 188.754,317.320 189.760 M317.661 193.760 C 317.764 194.816,317.901 195.740,317.964 195.813 C 318.210 196.097,318.020 193.085,317.754 192.480 C 317.575 192.073,317.541 192.540,317.661 193.760 M318.243 199.360 C 318.314 200.856,318.593 204.456,318.864 207.360 C 319.135 210.264,319.438 213.572,319.537 214.712 C 319.636 215.852,319.801 216.860,319.903 216.952 C 320.124 217.152,319.930 214.429,319.047 204.960 C 318.316 197.129,318.049 195.266,318.243 199.360 M320.123 221.120 C 320.123 223.320,320.174 224.220,320.237 223.120 C 320.299 222.020,320.299 220.220,320.237 219.120 C 320.174 218.020,320.123 218.920,320.123 221.120 M319.754 226.240 C 319.754 226.856,319.820 227.108,319.901 226.800 C 319.981 226.492,319.981 225.988,319.901 225.680 C 319.820 225.372,319.754 225.624,319.754 226.240 M318.774 230.932 C 318.391 232.633,318.149 234.096,318.237 234.183 C 318.324 234.271,318.487 233.887,318.598 233.331 C 318.709 232.775,318.929 232.320,319.086 232.320 C 319.243 232.320,319.282 231.960,319.171 231.520 C 319.061 231.080,319.094 230.720,319.245 230.720 C 319.396 230.720,319.562 230.072,319.613 229.280 C 319.753 227.106,319.541 227.523,318.774 230.932 M315.619 239.646 C 311.399 248.271,304.680 254.893,295.958 259.025 C 292.569 260.630,285.713 262.720,283.835 262.720 C 283.157 262.720,282.244 262.856,281.807 263.022 C 281.066 263.304,276.175 263.551,256.160 264.319 C 251.760 264.487,246.864 264.701,245.280 264.793 C 243.696 264.885,238.224 265.105,233.120 265.281 C 228.016 265.458,223.264 265.669,222.560 265.750 C 221.856 265.831,218.184 265.987,214.400 266.097 C 209.745 266.231,207.241 266.431,206.656 266.715 C 206.159 266.957,205.749 267.006,205.691 266.832 C 205.628 266.644,203.532 266.626,200.157 266.785 L 194.725 267.040 194.562 267.976 C 194.227 269.908,194.567 271.633,195.311 271.778 C 195.715 271.857,195.518 271.931,194.834 271.956 C 194.098 271.984,193.605 271.835,193.497 271.552 C 193.311 271.069,190.079 270.681,190.080 271.142 C 190.080 271.285,189.792 271.312,189.440 271.200 C 188.558 270.920,187.627 271.266,187.627 271.874 C 187.627 272.259,187.844 272.335,188.543 272.195 C 189.725 271.959,193.280 272.327,193.280 272.686 C 193.280 272.837,192.558 272.960,191.676 272.960 C 190.793 272.960,189.821 273.087,189.516 273.243 C 187.579 274.228,185.552 274.478,177.314 274.747 C 175.308 274.812,173.580 274.961,173.474 275.077 C 173.278 275.290,174.696 275.251,197.920 274.408 C 204.960 274.152,215.472 273.792,221.280 273.607 C 227.088 273.422,235.800 273.120,240.640 272.937 C 264.657 272.028,265.374 272.023,265.084 272.778 C 264.978 273.055,265.223 273.131,265.906 273.030 C 266.442 272.952,266.880 272.770,266.880 272.626 C 266.880 272.482,267.299 272.485,267.812 272.632 C 268.439 272.812,268.937 272.766,269.332 272.493 C 269.655 272.270,271.000 272.004,272.320 271.903 C 273.640 271.801,275.197 271.628,275.780 271.517 C 276.440 271.391,277.023 271.467,277.325 271.717 C 277.665 271.999,277.873 272.015,278.024 271.771 C 278.143 271.580,278.528 271.374,278.880 271.312 C 279.232 271.250,279.592 271.121,279.680 271.025 C 280.059 270.610,283.808 269.668,285.210 269.635 C 286.191 269.613,286.850 269.427,287.046 269.120 C 287.248 268.801,287.352 268.774,287.355 269.040 C 287.358 269.260,287.510 269.440,287.694 269.440 C 287.878 269.440,287.986 269.189,287.934 268.881 C 287.873 268.516,288.215 268.135,288.922 267.781 C 290.497 266.993,292.480 265.323,292.480 264.785 C 292.480 264.529,292.686 264.320,292.938 264.320 C 293.191 264.320,293.477 264.068,293.576 263.760 C 293.675 263.452,294.332 262.570,295.038 261.800 C 295.743 261.029,296.320 260.309,296.321 260.200 C 296.321 260.090,297.076 259.496,297.998 258.880 C 304.075 254.821,309.218 250.421,310.915 247.831 C 311.444 247.024,311.504 247.007,311.899 247.547 C 312.131 247.863,312.320 247.980,312.320 247.805 C 312.320 247.631,312.168 247.336,311.982 247.150 C 311.745 246.913,311.872 246.536,312.410 245.886 C 314.031 243.928,318.117 236.052,317.701 235.687 C 317.646 235.638,316.709 237.420,315.619 239.646 M189.040 268.380 C 189.612 268.457,190.080 268.642,190.080 268.791 C 190.080 268.940,190.871 269.039,191.837 269.011 C 195.198 268.914,193.515 268.235,189.920 268.238 C 188.864 268.239,188.468 268.303,189.040 268.380 M181.440 273.284 C 181.440 273.658,182.613 273.712,182.838 273.348 C 182.924 273.209,182.644 273.067,182.217 273.031 C 181.790 272.996,181.440 273.110,181.440 273.284 M241.840 273.826 C 242.236 273.902,242.884 273.902,243.280 273.826 C 243.676 273.750,243.352 273.687,242.560 273.687 C 241.768 273.687,241.444 273.750,241.840 273.826 M224.400 274.461 C 224.708 274.541,225.212 274.541,225.520 274.461 C 225.828 274.380,225.576 274.314,224.960 274.314 C 224.344 274.314,224.092 274.380,224.400 274.461 M205.364 275.106 C 205.762 275.183,206.338 275.180,206.644 275.100 C 206.950 275.020,206.624 274.957,205.920 274.961 C 205.216 274.964,204.966 275.030,205.364 275.106 M165.520 275.421 C 165.828 275.501,166.332 275.501,166.640 275.421 C 166.948 275.340,166.696 275.274,166.080 275.274 C 165.464 275.274,165.212 275.340,165.520 275.421 M159.770 275.756 C 160.611 275.822,161.907 275.821,162.650 275.754 C 163.392 275.687,162.704 275.633,161.120 275.634 C 159.536 275.635,158.928 275.689,159.770 275.756 M140.890 276.396 C 141.731 276.462,143.027 276.461,143.770 276.394 C 144.512 276.327,143.824 276.273,142.240 276.274 C 140.656 276.275,140.048 276.329,140.890 276.396 M170.004 276.390 C 170.491 276.463,171.211 276.461,171.604 276.385 C 171.998 276.309,171.600 276.249,170.720 276.252 C 169.840 276.254,169.518 276.316,170.004 276.390 M136.884 277.346 C 137.282 277.423,137.858 277.420,138.164 277.340 C 138.470 277.260,138.144 277.197,137.440 277.201 C 136.736 277.204,136.486 277.270,136.884 277.346 " stroke="none" fill="#ed8dc5" fill-rule="evenodd"></path><path id="path3" d="M311.754 112.320 C 311.754 112.936,311.820 113.188,311.901 112.880 C 311.981 112.572,311.981 112.068,311.901 111.760 C 311.820 111.452,311.754 111.704,311.754 112.320 M221.207 116.800 C 221.207 117.592,221.270 117.916,221.346 117.520 C 221.422 117.124,221.422 116.476,221.346 116.080 C 221.270 115.684,221.207 116.008,221.207 116.800 M227.120 121.430 C 226.812 121.854,226.560 122.353,226.560 122.540 C 226.560 122.727,226.405 122.880,226.215 122.880 C 225.812 122.880,225.978 129.175,226.515 134.240 C 226.701 136.000,226.950 138.355,227.068 139.473 C 227.307 141.742,227.613 141.997,231.103 142.826 C 231.948 143.027,232.640 143.301,232.640 143.436 C 232.640 143.570,232.954 143.680,233.339 143.680 C 233.723 143.680,234.839 143.949,235.819 144.277 C 236.798 144.606,238.248 145.052,239.040 145.268 C 239.832 145.485,240.730 145.792,241.036 145.951 C 241.341 146.110,241.874 146.240,242.221 146.240 C 242.567 146.240,243.181 146.368,243.585 146.525 C 243.989 146.682,245.400 147.129,246.720 147.518 C 248.040 147.907,249.370 148.355,249.676 148.513 C 249.981 148.671,250.595 148.800,251.040 148.800 C 251.485 148.800,252.099 148.932,252.404 149.093 C 253.050 149.434,256.010 150.305,257.520 150.598 C 258.092 150.709,258.560 150.926,258.560 151.080 C 258.560 151.234,258.884 151.361,259.280 151.362 C 260.524 151.366,262.012 152.517,261.133 152.796 C 260.747 152.918,260.498 153.085,260.580 153.167 C 260.884 153.471,269.282 149.803,269.380 149.322 C 269.454 148.960,268.787 148.625,266.820 148.037 C 262.132 146.634,245.196 141.596,237.600 139.344 C 233.552 138.144,230.211 137.147,230.175 137.129 C 230.139 137.111,229.889 134.654,229.619 131.668 C 229.349 128.683,229.043 125.304,228.940 124.160 C 228.603 120.435,228.240 119.890,227.120 121.430 M220.572 122.720 C 220.574 123.600,220.636 123.922,220.710 123.436 C 220.783 122.949,220.781 122.229,220.705 121.836 C 220.629 121.442,220.569 121.840,220.572 122.720 M219.688 129.768 C 219.562 131.285,219.531 132.597,219.619 132.685 C 219.707 132.773,219.882 131.605,220.008 130.088 C 220.135 128.572,220.166 127.259,220.078 127.171 C 219.990 127.083,219.815 128.252,219.688 129.768 M200.000 129.974 C 200.000 130.883,199.866 132.503,199.702 133.574 C 199.539 134.644,199.175 138.112,198.894 141.280 C 198.612 144.448,198.240 148.408,198.067 150.080 C 197.738 153.249,196.311 168.784,195.789 174.880 C 195.623 176.816,195.360 179.768,195.203 181.440 C 194.663 187.220,194.550 189.422,194.871 187.935 C 195.200 186.412,195.735 185.280,196.127 185.280 C 196.806 185.280,198.077 174.550,198.080 168.800 C 198.080 167.040,198.386 161.424,198.759 156.320 C 199.132 151.216,199.482 146.104,199.537 144.960 C 199.591 143.816,199.719 141.656,199.822 140.160 C 200.162 135.203,200.373 128.320,200.185 128.320 C 200.083 128.320,200.000 129.064,200.000 129.974 M219.083 135.794 C 218.950 137.353,218.909 138.695,218.991 138.778 C 219.199 138.986,219.616 134.318,219.456 133.569 C 219.384 133.234,219.217 134.235,219.083 135.794 M179.520 140.946 C 177.672 141.707,170.052 144.793,162.588 147.804 C 146.258 154.390,147.439 153.614,151.632 155.005 C 154.078 155.816,155.514 156.117,153.941 155.488 C 152.814 155.038,153.685 154.316,156.960 152.983 C 158.368 152.411,159.657 151.811,159.824 151.651 C 159.991 151.491,160.531 151.360,161.024 151.360 C 161.517 151.360,161.920 151.251,161.920 151.118 C 161.920 150.985,162.520 150.689,163.253 150.460 C 163.986 150.231,165.165 149.764,165.873 149.422 C 166.581 149.080,167.409 148.800,167.713 148.800 C 168.018 148.800,168.315 148.692,168.373 148.560 C 168.432 148.428,169.128 148.081,169.920 147.790 C 170.712 147.498,172.080 146.994,172.960 146.670 C 173.840 146.345,174.608 145.972,174.667 145.840 C 174.725 145.708,175.021 145.600,175.323 145.600 C 175.625 145.600,176.009 145.481,176.176 145.336 C 176.343 145.192,177.380 144.726,178.480 144.302 C 179.580 143.878,180.480 143.421,180.480 143.286 C 180.480 143.150,180.617 143.040,180.785 143.040 C 181.159 143.040,182.307 141.888,183.290 140.529 C 184.291 139.144,183.755 139.203,179.520 140.946 M218.662 141.760 C 218.662 142.904,218.721 143.372,218.791 142.800 C 218.862 142.228,218.862 141.292,218.791 140.720 C 218.721 140.148,218.662 140.616,218.662 141.760 M217.974 147.840 C 217.940 148.632,217.845 149.856,217.761 150.560 L 217.610 151.840 217.938 150.560 C 218.118 149.856,218.214 148.632,218.151 147.840 L 218.035 146.400 217.974 147.840 M217.052 157.600 C 217.054 158.480,217.116 158.802,217.190 158.316 C 217.263 157.829,217.261 157.109,217.185 156.716 C 217.109 156.322,217.049 156.720,217.052 157.600 M288.945 157.230 C 288.513 157.454,286.792 158.225,285.120 158.944 C 282.566 160.042,271.060 165.399,257.840 171.646 C 256.124 172.457,253.316 173.784,251.600 174.595 C 249.884 175.406,247.688 176.432,246.720 176.874 C 238.090 180.821,235.200 182.486,235.200 183.511 C 235.200 184.141,234.000 184.322,233.536 183.762 C 233.311 183.492,233.171 182.943,233.223 182.542 C 233.276 182.141,233.179 181.261,233.007 180.586 C 232.835 179.912,232.615 178.208,232.517 176.800 C 232.419 175.392,232.243 172.872,232.126 171.200 C 231.863 167.437,231.563 166.473,230.841 167.072 C 229.817 167.923,229.745 168.919,230.261 175.150 C 230.540 178.521,230.849 182.322,230.946 183.596 C 231.162 186.408,231.608 186.957,233.019 186.147 C 233.543 185.846,234.236 185.600,234.559 185.600 C 234.882 185.600,235.195 185.492,235.253 185.360 C 235.349 185.145,239.474 183.040,239.800 183.040 C 239.874 183.040,241.601 182.248,243.637 181.280 C 245.674 180.312,247.489 179.520,247.670 179.520 C 247.852 179.520,248.000 179.376,248.000 179.200 C 248.000 179.024,248.184 178.880,248.408 178.880 C 248.633 178.880,249.677 178.453,250.728 177.930 C 251.780 177.408,252.820 176.976,253.040 176.970 C 253.260 176.965,253.440 176.816,253.440 176.640 C 253.440 176.464,253.644 176.320,253.892 176.320 C 254.141 176.320,255.185 175.909,256.212 175.406 C 260.141 173.485,269.100 169.280,269.266 169.280 C 269.325 169.280,271.656 168.190,274.447 166.859 C 282.858 162.845,284.930 161.857,285.600 161.544 C 286.598 161.077,287.124 160.592,288.317 159.040 C 288.925 158.248,289.567 157.500,289.742 157.377 C 290.360 156.947,289.721 156.829,288.945 157.230 M128.382 164.466 C 126.267 166.836,126.263 166.744,128.521 167.553 C 129.555 167.923,130.688 168.334,131.040 168.467 C 131.392 168.600,132.688 169.069,133.920 169.510 C 135.152 169.951,136.736 170.529,137.440 170.794 C 138.144 171.059,139.008 171.384,139.360 171.515 C 139.712 171.647,140.360 171.908,140.800 172.096 C 141.240 172.284,142.176 172.621,142.880 172.844 C 143.584 173.068,144.297 173.365,144.464 173.505 C 144.631 173.645,145.029 173.760,145.348 173.760 C 145.668 173.760,146.179 173.887,146.484 174.043 C 147.232 174.423,148.405 174.895,149.760 175.360 C 151.124 175.828,151.911 176.128,152.960 176.577 C 153.400 176.766,154.120 177.017,154.560 177.135 C 155.411 177.365,157.235 178.101,158.156 178.587 C 158.461 178.748,158.989 178.880,159.329 178.880 C 159.669 178.880,159.995 178.988,160.053 179.121 C 160.112 179.253,161.168 179.692,162.400 180.097 C 163.632 180.502,164.928 180.962,165.280 181.120 C 165.632 181.278,166.622 181.636,167.481 181.914 C 169.240 182.484,174.698 184.496,176.160 185.112 C 178.989 186.304,184.303 188.160,184.888 188.160 C 185.742 188.160,189.149 183.852,189.110 182.821 C 189.105 182.677,188.954 182.812,188.774 183.120 C 188.285 183.961,183.843 182.693,173.920 178.879 C 173.568 178.744,172.632 178.452,171.840 178.231 C 171.048 178.010,169.815 177.561,169.099 177.234 C 168.383 176.907,167.657 176.640,167.485 176.640 C 167.312 176.640,165.548 175.922,163.563 175.045 C 160.195 173.556,147.518 168.784,135.389 164.441 C 132.502 163.406,130.126 162.561,130.109 162.562 C 130.093 162.563,129.316 163.419,128.382 164.466 M216.394 163.840 C 216.394 164.456,216.460 164.708,216.541 164.400 C 216.621 164.092,216.621 163.588,216.541 163.280 C 216.460 162.972,216.394 163.224,216.394 163.840 M216.092 167.840 C 216.094 168.720,216.156 169.042,216.230 168.556 C 216.303 168.069,216.301 167.349,216.225 166.956 C 216.149 166.562,216.089 166.960,216.092 167.840 M187.932 172.640 C 187.934 173.520,187.996 173.842,188.070 173.356 C 188.143 172.869,188.141 172.149,188.065 171.756 C 187.989 171.362,187.929 171.760,187.932 172.640 M215.447 174.400 C 215.447 175.192,215.510 175.516,215.586 175.120 C 215.662 174.724,215.662 174.076,215.586 173.680 C 215.510 173.284,215.447 173.608,215.447 174.400 M188.572 180.000 C 188.574 180.880,188.636 181.202,188.710 180.716 C 188.783 180.229,188.781 179.509,188.705 179.116 C 188.629 178.722,188.569 179.120,188.572 180.000 M207.520 199.694 C 205.584 199.817,202.520 199.937,200.711 199.959 L 197.421 200.000 195.359 202.093 C 192.605 204.888,191.982 204.780,205.780 203.896 L 209.160 203.680 210.260 202.432 C 212.769 199.585,212.586 199.889,211.938 199.633 C 211.620 199.508,211.288 199.419,211.200 199.437 C 211.112 199.455,209.456 199.570,207.520 199.694 M287.200 260.480 C 286.964 260.862,287.591 260.862,288.480 260.480 C 289.051 260.234,289.028 260.203,288.259 260.182 C 287.785 260.170,287.309 260.304,287.200 260.480 M285.600 260.800 C 285.491 260.976,285.618 261.120,285.882 261.120 C 286.146 261.120,286.451 260.976,286.560 260.800 C 286.669 260.624,286.542 260.480,286.278 260.480 C 286.014 260.480,285.709 260.624,285.600 260.800 M280.400 261.981 C 280.708 262.061,281.212 262.061,281.520 261.981 C 281.828 261.900,281.576 261.834,280.960 261.834 C 280.344 261.834,280.092 261.900,280.400 261.981 M267.200 262.388 C 267.200 262.736,272.493 262.654,272.846 262.301 C 272.967 262.180,271.747 262.080,270.133 262.080 C 268.464 262.080,267.200 262.213,267.200 262.388 M250.880 263.084 C 250.880 263.236,251.240 263.360,251.680 263.360 C 252.120 263.360,252.480 263.305,252.480 263.237 C 252.480 263.170,252.120 263.046,251.680 262.962 C 251.240 262.878,250.880 262.933,250.880 263.084 " stroke="none" fill="#ae3e7b" fill-rule="evenodd"></path><path id="path4" d="M235.453 43.437 C 236.559 43.500,238.287 43.499,239.293 43.436 C 240.298 43.373,239.392 43.322,237.280 43.322 C 235.168 43.323,234.346 43.375,235.453 43.437 M180.080 45.357 C 181.180 45.419,182.980 45.419,184.080 45.357 C 185.180 45.294,184.280 45.243,182.080 45.243 C 179.880 45.243,178.980 45.294,180.080 45.357 M78.801 110.560 C 78.804 111.264,78.870 111.514,78.946 111.116 C 79.023 110.718,79.020 110.142,78.940 109.836 C 78.860 109.530,78.797 109.856,78.801 110.560 M200.935 109.840 C 200.921 109.884,200.784 111.216,200.630 112.800 C 200.476 114.384,200.187 116.976,199.986 118.560 C 199.786 120.144,199.585 121.872,199.540 122.400 C 199.495 122.928,199.294 123.761,199.093 124.251 C 198.892 124.741,198.657 125.893,198.570 126.811 C 198.268 130.025,197.486 135.207,197.184 136.000 C 197.017 136.440,196.769 137.592,196.633 138.560 C 196.314 140.834,196.212 141.460,196.035 142.240 C 195.955 142.592,195.788 143.567,195.663 144.407 C 195.538 145.247,195.311 146.012,195.158 146.106 C 195.005 146.201,194.880 148.647,194.880 151.543 C 194.880 154.439,194.740 157.059,194.568 157.364 C 194.397 157.670,194.122 159.288,193.958 160.960 C 193.202 168.657,191.010 171.721,188.549 168.517 L 187.840 167.594 187.850 168.677 C 187.860 169.825,188.301 175.526,188.749 180.320 C 189.052 183.555,189.028 183.636,186.972 186.320 C 185.198 188.636,184.277 188.533,176.160 185.112 C 174.698 184.496,169.240 182.484,167.481 181.914 C 166.622 181.636,165.632 181.278,165.280 181.120 C 164.928 180.962,163.632 180.502,162.400 180.097 C 161.168 179.692,160.112 179.253,160.053 179.121 C 159.995 178.988,159.669 178.880,159.329 178.880 C 158.989 178.880,158.461 178.748,158.156 178.587 C 157.235 178.101,155.411 177.365,154.560 177.135 C 154.120 177.017,153.436 176.785,153.040 176.620 C 151.646 176.039,150.869 175.741,149.760 175.360 C 148.405 174.895,147.232 174.423,146.484 174.043 C 146.179 173.887,145.668 173.760,145.348 173.760 C 145.029 173.760,144.631 173.645,144.464 173.505 C 144.297 173.365,143.584 173.068,142.880 172.844 C 142.176 172.621,141.240 172.284,140.800 172.096 C 140.360 171.908,139.712 171.647,139.360 171.515 C 139.008 171.384,138.144 171.059,137.440 170.794 C 136.736 170.529,135.080 169.924,133.760 169.450 C 132.440 168.976,131.072 168.468,130.720 168.321 C 130.368 168.174,129.318 167.796,128.388 167.480 C 126.141 166.717,125.440 166.023,125.440 164.566 C 125.440 161.523,124.691 156.031,124.373 156.743 C 123.842 157.933,125.390 167.761,126.338 169.219 C 127.096 170.385,128.542 171.840,128.942 171.840 C 129.143 171.840,130.057 172.402,130.974 173.088 C 132.587 174.297,136.638 176.320,137.445 176.320 C 137.663 176.320,138.021 176.536,138.240 176.800 C 138.459 177.064,138.952 177.280,139.335 177.280 C 139.718 177.280,140.169 177.406,140.336 177.560 C 140.503 177.715,141.465 178.144,142.473 178.513 C 143.481 178.883,144.561 179.326,144.873 179.498 C 145.779 179.998,148.534 181.120,148.854 181.120 C 149.244 181.120,151.134 182.456,151.456 182.960 C 151.597 183.180,151.868 183.360,152.059 183.360 C 152.250 183.360,152.740 183.720,153.148 184.160 C 153.630 184.680,154.235 184.960,154.876 184.960 C 155.925 184.960,157.065 185.550,158.452 186.812 C 158.979 187.290,160.091 187.751,161.363 188.018 C 162.496 188.255,164.992 189.225,166.911 190.174 C 170.839 192.115,171.823 192.427,175.680 192.959 C 178.984 193.414,178.671 193.402,180.730 193.148 C 181.917 193.002,182.728 193.080,183.450 193.409 C 184.699 193.977,188.533 194.027,188.405 193.473 C 188.358 193.268,188.458 193.033,188.628 192.951 C 188.972 192.782,190.696 195.194,190.861 196.074 C 190.919 196.385,191.157 197.675,191.389 198.940 C 192.184 203.267,193.022 202.454,193.598 196.800 C 193.768 195.128,194.139 191.672,194.422 189.120 C 194.935 184.499,195.216 181.574,195.789 174.880 C 196.293 168.990,197.732 153.310,198.064 150.080 C 198.365 147.153,199.052 139.829,199.684 132.800 C 199.850 130.952,200.135 127.496,200.317 125.120 C 200.699 120.133,201.216 113.869,201.446 111.440 C 201.568 110.160,201.198 109.003,200.935 109.840 M221.625 114.960 C 220.870 121.343,220.548 124.268,220.173 128.160 C 220.004 129.920,219.705 132.872,219.510 134.720 C 219.181 137.836,218.999 139.734,218.250 147.840 C 218.095 149.512,217.598 154.552,217.146 159.040 C 216.694 163.528,216.102 169.504,215.831 172.320 C 215.560 175.136,215.202 178.592,215.036 180.000 C 214.870 181.408,214.583 184.576,214.398 187.040 C 214.212 189.504,213.916 192.672,213.738 194.080 C 213.561 195.488,213.345 197.216,213.258 197.920 C 213.104 199.168,212.729 199.720,210.085 202.591 L 209.025 203.741 204.433 204.031 C 201.907 204.190,198.220 204.320,196.240 204.320 C 192.263 204.320,191.952 204.512,193.680 205.896 C 194.252 206.355,194.875 206.854,195.065 207.006 C 195.812 207.605,197.112 207.774,200.681 207.737 C 206.701 207.675,210.838 205.273,212.905 200.640 C 213.180 200.024,213.621 199.160,213.884 198.720 C 214.148 198.280,214.869 195.544,215.487 192.640 C 217.038 185.347,217.127 184.560,216.531 183.366 C 216.092 182.486,216.086 182.057,216.481 179.617 C 216.727 178.102,216.907 176.776,216.883 176.671 C 216.840 176.490,217.253 170.712,217.479 168.320 C 217.537 167.704,217.648 166.091,217.725 164.735 C 217.801 163.379,217.981 162.083,218.123 161.855 C 218.421 161.378,218.399 161.504,218.685 158.560 C 218.999 155.326,219.772 152.463,220.985 150.042 C 222.160 147.696,222.443 147.534,224.992 147.754 C 227.140 147.939,228.854 148.501,239.489 152.510 C 243.195 153.906,246.607 156.046,246.466 156.883 C 246.414 157.190,246.531 157.440,246.725 157.440 C 246.919 157.440,246.989 157.584,246.880 157.760 C 246.491 158.389,247.729 158.054,252.391 156.271 C 258.467 153.947,258.775 153.827,260.422 153.134 L 261.803 152.553 260.902 151.959 C 260.406 151.632,259.676 151.363,259.280 151.362 C 258.884 151.361,258.560 151.234,258.560 151.080 C 258.560 150.926,258.092 150.709,257.520 150.598 C 256.010 150.305,253.050 149.434,252.404 149.093 C 252.099 148.932,251.485 148.800,251.040 148.800 C 250.595 148.800,249.981 148.671,249.676 148.513 C 249.370 148.355,248.040 147.907,246.720 147.518 C 245.400 147.129,243.989 146.682,243.585 146.525 C 243.181 146.368,242.567 146.240,242.221 146.240 C 241.874 146.240,241.341 146.110,241.036 145.951 C 240.730 145.792,239.832 145.485,239.040 145.268 C 238.248 145.052,236.798 144.606,235.819 144.277 C 234.839 143.949,233.723 143.680,233.339 143.680 C 232.954 143.680,232.640 143.570,232.640 143.436 C 232.640 143.301,231.948 143.027,231.103 142.826 C 227.613 141.997,227.307 141.742,227.068 139.473 C 226.950 138.355,226.701 136.000,226.515 134.240 C 225.978 129.175,225.812 122.880,226.215 122.880 C 226.405 122.880,226.560 122.682,226.560 122.439 C 226.560 122.197,226.779 121.816,227.048 121.594 C 227.892 120.892,227.329 120.903,225.965 121.614 C 222.974 123.173,222.354 122.019,222.390 114.960 C 222.404 112.276,222.367 110.080,222.309 110.080 C 222.250 110.080,221.943 112.276,221.625 114.960 M184.732 134.560 C 184.734 135.440,184.796 135.762,184.870 135.276 C 184.943 134.789,184.941 134.069,184.865 133.676 C 184.789 133.282,184.729 133.680,184.732 134.560 M184.922 137.350 C 185.069 138.239,185.114 138.284,185.215 137.643 C 185.281 137.227,185.202 136.754,185.041 136.593 C 184.864 136.416,184.817 136.714,184.922 137.350 M183.535 140.240 C 181.950 142.200,181.130 143.040,180.805 143.040 C 180.626 143.040,180.480 143.150,180.480 143.286 C 180.480 143.421,179.580 143.878,178.480 144.302 C 177.380 144.726,176.343 145.192,176.176 145.336 C 176.009 145.481,175.625 145.600,175.323 145.600 C 175.021 145.600,174.725 145.708,174.667 145.840 C 174.608 145.972,173.876 146.332,173.040 146.640 C 172.204 146.948,170.836 147.452,170.000 147.760 C 169.164 148.068,168.432 148.428,168.373 148.560 C 168.315 148.692,168.018 148.800,167.713 148.800 C 167.409 148.800,166.581 149.080,165.873 149.422 C 165.165 149.764,163.986 150.231,163.253 150.460 C 162.520 150.689,161.920 150.985,161.920 151.118 C 161.920 151.251,161.517 151.360,161.024 151.360 C 160.531 151.360,159.991 151.491,159.824 151.651 C 159.657 151.811,158.368 152.412,156.960 152.987 C 152.398 154.850,152.398 155.043,156.960 156.437 C 165.200 158.957,167.655 159.293,167.675 157.903 C 167.684 157.276,169.746 155.632,172.480 154.070 C 180.961 149.228,184.168 145.793,184.823 140.852 C 185.082 138.900,184.748 138.741,183.535 140.240 M288.684 158.555 C 287.695 160.007,286.623 161.064,285.702 161.496 C 284.931 161.857,282.991 162.781,274.447 166.859 C 271.656 168.190,269.325 169.280,269.266 169.280 C 269.100 169.280,260.141 173.485,256.212 175.406 C 255.185 175.909,254.141 176.320,253.892 176.320 C 253.644 176.320,253.440 176.464,253.440 176.640 C 253.440 176.816,253.260 176.965,253.040 176.970 C 252.820 176.976,251.780 177.408,250.728 177.930 C 249.677 178.453,248.633 178.880,248.408 178.880 C 248.184 178.880,248.000 179.024,248.000 179.200 C 248.000 179.376,247.852 179.520,247.670 179.520 C 247.489 179.520,245.674 180.312,243.637 181.280 C 241.601 182.248,239.874 183.040,239.800 183.040 C 239.474 183.040,235.349 185.145,235.253 185.360 C 235.195 185.492,234.882 185.600,234.559 185.600 C 234.236 185.600,233.543 185.846,233.019 186.147 C 231.592 186.966,231.171 186.418,230.935 183.439 C 230.826 182.075,230.518 178.300,230.250 175.048 C 229.752 169.005,229.790 168.257,230.647 167.280 C 231.463 166.351,230.582 166.652,229.711 167.600 C 226.875 170.685,225.986 174.766,227.103 179.579 C 227.402 180.867,227.650 182.532,227.655 183.280 C 227.659 184.028,227.739 184.643,227.832 184.647 C 227.924 184.651,228.432 185.298,228.960 186.084 C 230.464 188.324,232.893 189.009,235.680 187.978 C 236.384 187.718,238.129 187.365,239.558 187.194 C 240.986 187.023,242.674 186.666,243.307 186.401 C 243.941 186.137,244.838 185.920,245.301 185.920 C 246.574 185.920,248.356 184.950,248.929 183.945 C 249.210 183.452,249.944 182.845,250.560 182.596 C 251.176 182.347,252.904 181.571,254.400 180.872 C 260.139 178.189,262.920 176.874,264.000 176.331 C 270.135 173.246,272.394 172.160,272.682 172.160 C 272.869 172.160,273.403 171.891,273.871 171.562 C 274.338 171.233,275.080 170.856,275.520 170.724 C 275.960 170.592,276.536 170.305,276.800 170.087 C 277.064 169.868,278.309 169.096,279.567 168.370 C 284.053 165.782,289.920 159.676,289.920 157.596 C 289.920 157.135,289.350 157.577,288.684 158.555 M226.880 263.680 C 226.553 263.891,227.369 263.982,229.440 263.963 C 231.449 263.945,232.209 263.849,231.680 263.680 C 230.536 263.314,227.447 263.314,226.880 263.680 M240.084 263.590 C 240.571 263.663,241.291 263.661,241.684 263.585 C 242.078 263.509,241.680 263.449,240.800 263.452 C 239.920 263.454,239.598 263.516,240.084 263.590 M207.821 263.966 C 207.752 264.035,204.631 264.134,200.887 264.186 C 189.358 264.345,173.849 264.651,168.640 264.823 C 165.912 264.913,160.440 265.042,156.480 265.110 C 152.520 265.178,148.200 265.397,146.880 265.596 C 144.676 265.927,139.813 265.849,135.520 265.412 C 133.940 265.252,133.932 265.255,134.880 265.708 C 138.547 267.461,142.008 267.643,158.400 266.949 C 163.416 266.737,169.536 266.487,172.000 266.393 C 195.683 265.497,201.942 265.235,207.200 264.918 C 210.588 264.714,213.484 264.395,213.741 264.196 C 214.087 263.929,214.146 263.935,213.976 264.218 C 213.806 264.502,214.678 264.563,217.515 264.465 C 219.586 264.393,222.036 264.331,222.960 264.327 C 223.930 264.323,224.640 264.176,224.640 263.979 C 224.640 263.657,208.144 263.644,207.821 263.966 M160.880 276.717 C 161.980 276.779,163.780 276.779,164.880 276.717 C 165.980 276.654,165.080 276.603,162.880 276.603 C 160.680 276.603,159.780 276.654,160.880 276.717 " stroke="none" fill="#5c3da4" fill-rule="evenodd"></path></g></svg>